<svg id="Camada_1" data-name="Camada 1" xmlns="http://www.w3.org/2000/svg" viewBox="0 0 250 250"><defs><style>.cls-1{fill:#4dce59;}.cls-2{fill:#009245;}</style></defs><title>Artboard 2</title><path class="cls-1" d="M195,101.88l21.54-6.18s.3,11.64-5.95,17.73c0,0,.86,13.74-14.45,13.6"/><path class="cls-1" d="M196.36,131.85h-.28a4.82,4.82,0,0,1,0-9.64h.23c3.41,0,5.93-.84,7.48-2.5a9.36,9.36,0,0,0,2.1-6,4.79,4.79,0,0,1,1.46-3.76c2-1.92,3.11-4.88,3.75-7.67l-14.91,4.27a4.64,4.64,0,0,1-5.73-3.35,4.85,4.85,0,0,1,3.24-5.93l21.54-6.18a4.53,4.53,0,0,1,4,.77,4.88,4.88,0,0,1,1.89,3.75c0,1.31.12,12.38-6,19.82a18.53,18.53,0,0,1-4.54,10.88C207.27,130,202.46,131.85,196.36,131.85Z"/><path class="cls-2" d="M65,94.46,27.18,89s4,16.59,12.92,24.49c0,0-.12,18.8,26.81,17.23"/><path class="cls-2" d="M63.79,135.65c-9.37,0-16.68-2.43-21.76-7.25a21.83,21.83,0,0,1-6.57-12.66c-8.88-9.12-12.79-24.89-13-25.59a4.82,4.82,0,0,1,5.37-5.9L65.7,89.69a4.81,4.81,0,1,1-1.37,9.53l-30.2-4.34c1.88,4.92,4.92,11.26,9.17,15a4.82,4.82,0,0,1,1.61,3.63,12.17,12.17,0,0,0,3.86,8c3.69,3.4,9.69,4.89,17.86,4.41a4.82,4.82,0,0,1,.56,9.62C66,135.62,64.89,135.65,63.79,135.65Z"/><path class="cls-1" d="M69.82,109.61s-7.73-74.9,58.34-74.22,72.29,70,72.29,70V168s-2,51.29-70.18,47.89C130.27,215.84,69.12,218.56,69.82,109.61Z"/><path class="cls-2" d="M66.46,110.44s-7.06-70.64,53.3-70,66,66,66,66v59s-1.82,48.38-64.11,45.17C121.69,210.62,65.82,213.18,66.46,110.44Z"/><path class="cls-2" d="M127.32,215.58c-1.86,0-3.76-.05-5.69-.15-2.37,0-18.06-.27-32.9-14.52-18.2-17.5-27.32-47.87-27.08-90.26C61.32,107,58.89,73,78.21,51.88c10-11,24-16.45,41.6-16.25s31.82,5.94,42.47,17.1c20.49,21.48,20.19,55.38,20.1,58.92l3.19,51.79c.06.86,1.19,21.37-13.83,36.59C161.53,210.36,146.61,215.58,127.32,215.58Zm-5.62-9.79.24,0c19.29,1,33.74-3.23,42.94-12.55,12-12.17,11.09-29,11.08-29.21l-3.23-52.27v-.23c0-.32.91-33-17.46-52.21-8.78-9.18-20.75-13.92-35.57-14.08S93.45,49.51,85.34,58.35C68.25,77,71.22,109.64,71.26,110l0,.24v.26C71,149.68,79.38,178.56,95.41,194c12.8,12.31,25.93,11.85,26.06,11.84Z"/><rect class="cls-2" x="99.57" y="102.09" width="33.35" height="22.48"/><path class="cls-1" d="M132.93,127.78H99.57a3.21,3.21,0,0,1-3.21-3.21V102.09a3.21,3.21,0,0,1,3.21-3.21h33.36a3.21,3.21,0,0,1,3.21,3.21v22.48A3.21,3.21,0,0,1,132.93,127.78Zm-30.14-6.42h26.92V105.3H102.79Z"/><rect class="cls-2" x="156.08" y="102.09" width="33.35" height="22.48"/><path class="cls-1" d="M189.43,127.78H156.08a3.21,3.21,0,0,1-3.21-3.21V102.09a3.21,3.21,0,0,1,3.21-3.21h33.35a3.22,3.22,0,0,1,3.22,3.21v22.48A3.22,3.22,0,0,1,189.43,127.78Zm-30.13-6.42h26.92V105.3H159.3Z"/><path class="cls-1" d="M156,113.14H133.57a3.22,3.22,0,0,1,0-6.43H156a3.22,3.22,0,0,1,0,6.43Z"/><polygon class="cls-1" points="118.29 168.69 121.92 149.94 130.6 168.04 118.29 168.69"/><path class="cls-1" d="M131.07,171.21l-.21,0-12.31.65a2.64,2.64,0,0,1-2.28-1.21,3.72,3.72,0,0,1-.61-2.85l3.63-18.76a2.74,2.74,0,0,1,2.22-2.32,2.78,2.78,0,0,1,2.74,1.71l8.69,18.11a3.74,3.74,0,0,1,.07,3.07A2.57,2.57,0,0,1,131.07,171.21Zm-9.32-5.91,4.39-.24-3.1-6.45Z"/><polygon class="cls-1" points="172.06 168.69 175.69 149.94 184.37 168.04 172.06 168.69"/><path class="cls-1" d="M184.84,171.21l-.21,0-12.31.65a2.64,2.64,0,0,1-2.28-1.21,3.72,3.72,0,0,1-.61-2.85l3.63-18.76a2.74,2.74,0,0,1,2.22-2.32,2.78,2.78,0,0,1,2.74,1.71l8.69,18.11a3.74,3.74,0,0,1,.07,3.07A2.57,2.57,0,0,1,184.84,171.21Zm-9.32-5.91,4.39-.24-3.1-6.45Z"/><path class="cls-1" d="M189.43,173.37H99.53a3.21,3.21,0,0,1,0-6.42h89.9a3.21,3.21,0,1,1,0,6.42Z"/></svg>